<?xml version="1.0" encoding="UTF-8" standalone="no"?><!-- Generator: Gravit.io --><svg xmlns="http://www.w3.org/2000/svg" xmlns:xlink="http://www.w3.org/1999/xlink" style="isolation:isolate" viewBox="0 0 16 16" width="16pt" height="16pt"><defs><clipPath id="_clipPath_DBq8KvfscBki82tX9rroSGZyMjCHdSV0"><rect width="16" height="16"/></clipPath></defs><g clip-path="url(#_clipPath_DBq8KvfscBki82tX9rroSGZyMjCHdSV0)"><rect x="13" y="3" width="2" height="12" transform="matrix(1,0,0,1,0,0)" fill="rgb(58,58,58)"/><rect x="13" y="2" width="1" height="1" transform="matrix(1,0,0,1,0,0)" fill="rgb(198,198,198)"/><rect x="2" y="2" width="1" height="1" transform="matrix(1,0,0,1,0,0)" fill="rgb(255,255,255)"/><rect x="3" y="1" width="10" height="2" transform="matrix(1,0,0,1,0,0)" fill="rgb(255,255,255)"/><rect x="-7" y="4" width="1" height="1" transform="matrix(1,0,0,1,0,0)" fill="rgb(255,255,255)"/><rect x="4" y="12" width="8" height="1" transform="matrix(1,0,0,1,0,0)" fill="rgb(198,198,198)"/><rect x="3" y="4" width="1" height="9" transform="matrix(1,0,0,1,0,0)" fill="rgb(198,198,198)"/><rect x="3" y="4" width="1" height="9" transform="matrix(1,0,0,1,0,0)" fill="rgb(198,198,198)"/><rect x="12" y="12" width="1" height="1" transform="matrix(1,0,0,1,0,0)" fill="rgb(58,58,58)"/><rect x="4" y="3" width="9" height="9" transform="matrix(1,0,0,1,0,0)" fill="rgb(198,198,198)"/><rect x="2" y="13" width="1.5" height="2" transform="matrix(1,0,0,1,0,0)" fill="rgb(58,58,58)"/><rect x="3" y="13" width="11" height="3" transform="matrix(1,0,0,1,0,0)" fill="rgb(58,58,58)"/><rect x="3" y="0" width="10" height="1" transform="matrix(1,0,0,1,0,0)" fill="rgb(0,0,0)"/><rect x="0" y="3" width="1" height="10" transform="matrix(1,0,0,1,0,0)" fill="rgb(0,0,0)"/><rect x="15" y="3" width="1" height="11" transform="matrix(1,0,0,1,0,0)" fill="rgb(0,0,0)"/><rect x="14" y="14" width="1" height="1" transform="matrix(1,0,0,1,0,0)" fill="rgb(0,0,0)"/><rect x="1" y="13" width="1" height="1" transform="matrix(1,0,0,1,0,0)" fill="rgb(0,0,0)"/><rect x="2" y="1" width="1" height="1" transform="matrix(1,0,0,1,0,0)" fill="rgb(0,0,0)"/><rect x="14" y="2" width="1" height="1" transform="matrix(1,0,0,1,0,0)" fill="rgb(0,0,0)"/><rect x="13" y="1" width="1" height="1" transform="matrix(1,0,0,1,0,0)" fill="rgb(0,0,0)"/><rect x="1" y="2" width="1" height="1" transform="matrix(1,0,0,1,0,0)" fill="rgb(0,0,0)"/><rect x="2" y="14" width="1" height="1" transform="matrix(1,0,0,1,0,0)" fill="rgb(0,0,0)"/><rect x="2" y="27" width="1" height="1" transform="matrix(1,0,0,1,0,0)" fill="rgb(0,0,0)"/><rect x="-10" y="14" width="1" height="1" transform="matrix(1,0,0,1,0,0)" fill="rgb(0,0,0)"/><rect x="3" y="15" width="11" height="1" transform="matrix(-1,0,0,-1,17,31)" fill="rgb(0,0,0)"/><rect x="3" y="30" width="12.1" height="1" transform="matrix(1,0,0,1,0,0)" fill="rgb(0,0,0)"/><rect x="1" y="3" width="2" height="10" transform="matrix(1,0,0,1,0,0)" fill="rgb(255,255,255)"/></g></svg>